<?xml version="1.0" standalone="no"?>
<!DOCTYPE svg PUBLIC "-//W3C//DTD SVG 20010904//EN"
 "http://www.w3.org/TR/2001/REC-SVG-20010904/DTD/svg10.dtd">
<svg version="1.0" xmlns="http://www.w3.org/2000/svg"
 width="338.000000pt" height="149.000000pt" viewBox="0 0 338.000000 149.000000"
 preserveAspectRatio="xMidYMid meet">

<g transform="translate(0.000000,149.000000) scale(0.100000,-0.100000)"
fill="#000000" stroke="none">
<path d="M75 1460 c-8 -16 -15 -41 -15 -56 0 -27 0 -27 21 -8 19 17 19 19 3
31 -10 7 -13 13 -7 13 7 0 15 -5 18 -10 4 -6 15 -8 25 -5 25 8 36 -13 12 -23
-11 -4 -32 -22 -47 -40 -25 -29 -26 -36 -16 -59 l12 -27 19 29 c11 17 16 33
10 40 -5 6 -3 17 5 28 8 12 15 14 20 8 3 -6 1 -11 -4 -11 -6 0 -11 -5 -11 -10
0 -7 6 -7 19 0 35 18 36 -10 2 -37 -20 -16 -31 -33 -31 -49 0 -24 1 -24 30 -9
17 9 30 18 30 21 0 3 -5 2 -12 -2 -7 -4 -8 -3 -4 4 9 15 36 4 36 -14 0 -8 4
-14 9 -14 4 0 2 23 -5 52 -16 61 -17 78 -5 78 5 0 11 -13 14 -29 5 -23 11 -28
32 -28 14 0 36 -10 49 -22 l23 -22 -4 25 c-5 24 -21 45 -33 44 -9 -2 -50 27
-50 34 0 20 46 4 76 -26 37 -37 44 -27 23 32 -7 22 -15 29 -26 25 -12 -5 -14
-3 -8 7 6 10 2 12 -18 8 -15 -3 -24 -1 -21 3 3 5 -2 9 -10 9 -9 0 -16 4 -16 9
0 16 34 18 63 4 27 -14 28 -13 17 6 -10 19 -20 21 -110 21 l-99 0 -16 -30z
m54 -6 c-6 -8 -15 -14 -20 -14 -14 0 -11 28 4 33 20 7 29 -4 16 -19z m74 -15
c21 2 27 0 27 -10 0 -6 -7 -9 -15 -5 -8 3 -15 1 -15 -3 0 -5 -6 -11 -14 -14
-9 -4 -13 0 -11 11 2 9 4 28 5 42 2 25 2 25 8 2 4 -13 10 -23 15 -23z"/>
<path d="M505 1406 c0 -48 -4 -88 -10 -90 -6 -2 -4 -9 4 -17 12 -12 13 -12 6
0 -6 10 -4 12 4 6 7 -4 10 -16 8 -27 -3 -11 -3 -18 -1 -15 3 3 21 -11 40 -31
19 -19 34 -32 34 -28 0 3 11 -1 25 -10 34 -22 140 -22 187 0 32 16 87 72 80
83 -1 2 4 11 13 19 8 9 13 19 10 23 -3 6 -40 7 -64 2 -3 -1 3 -7 13 -14 18
-13 18 -14 1 -21 -11 -4 -25 0 -37 10 -10 10 -21 14 -25 11 -3 -4 -2 -7 4 -7
5 0 15 -12 21 -26 7 -14 8 -23 3 -20 -5 4 -11 1 -13 -6 -3 -7 -13 0 -24 16
-10 15 -36 45 -56 66 -21 21 -38 44 -38 51 0 7 -10 3 -24 -10 -37 -35 -77 -42
-98 -17 -22 26 -23 7 -3 -41 20 -47 19 -56 -4 -41 -12 7 -19 23 -19 42 0 17
-5 51 -11 76 -14 59 -14 65 3 51 11 -10 16 -8 21 9 9 29 -9 48 -29 31 -10 -9
-15 -9 -18 0 -2 6 -4 -27 -3 -75z m240 -116 c-3 -5 -1 -10 5 -10 6 0 8 -5 4
-11 -4 -8 -9 -7 -15 2 -12 19 -11 29 2 29 5 0 7 -4 4 -10z m32 -56 c-3 -4 -14
-3 -24 0 -15 6 -15 8 -3 16 16 10 39 -4 27 -16z"/>
<path d="M570 1480 c0 -5 12 -7 28 -4 34 7 82 -27 83 -59 1 -15 3 -12 9 10 4
18 13 40 20 48 11 13 3 15 -64 15 -43 0 -76 -4 -76 -10z"/>
<path d="M889 1473 c14 -27 14 -88 2 -112 -7 -13 -6 -18 5 -18 7 0 14 3 15 6
1 3 2 17 3 31 2 14 6 36 10 50 6 19 5 21 -3 10 -9 -13 -11 -13 -11 1 0 8 -7
24 -16 35 -15 18 -15 18 -5 -3z"/>
<path d="M2440 1479 c0 -5 -4 -7 -10 -4 -5 3 -10 -1 -10 -11 0 -12 -7 -15 -30
-12 -22 3 -31 0 -35 -12 -3 -10 -14 -25 -25 -35 -11 -10 -20 -22 -20 -27 0 -4
13 6 30 24 28 31 29 32 30 10 0 -22 41 -49 65 -43 5 1 15 -6 22 -15 7 -10 13
-15 13 -11 0 4 10 2 22 -4 47 -25 87 -28 111 -8 12 10 16 18 9 19 -9 0 -10 5
-2 19 5 11 10 28 10 38 0 15 -2 16 -10 3 -5 -8 -10 -10 -10 -4 0 6 6 17 14 24
8 6 12 19 9 27 -6 14 -8 14 -15 -3 -7 -15 -7 -13 -5 9 l4 27 -83 0 c-53 0 -84
-4 -84 -11z"/>
<path d="M2888 1484 c18 -8 15 -24 -5 -24 -16 0 -63 -58 -63 -77 0 -5 -11 -20
-24 -34 -20 -22 -66 -103 -66 -117 0 -2 10 0 21 3 19 6 21 4 15 -19 -3 -14 -2
-26 3 -26 9 0 21 26 25 57 1 8 7 18 13 21 6 4 13 18 16 32 4 24 4 24 6 -3 1
-20 6 -27 17 -25 17 3 25 -8 42 -60 6 -17 6 -30 1 -26 -16 10 -10 -25 12 -64
16 -28 20 -31 15 -12 -7 32 1 43 44 65 40 21 61 40 53 49 -4 3 2 6 12 6 15 0
16 -3 7 -12 -14 -14 -16 -58 -3 -58 14 0 24 72 11 80 -8 5 -7 9 3 13 17 6 31
-31 21 -57 -3 -9 -3 -16 0 -16 14 0 45 87 39 108 l-5 21 -19 -22 c-23 -27 -25
-15 -3 18 11 17 12 25 4 25 -8 0 -9 10 -5 29 5 26 3 29 -25 34 -16 4 -30 11
-30 17 0 7 7 7 21 -1 15 -8 19 -8 15 0 -4 6 0 12 8 12 9 1 21 2 27 3 11 1 48
46 49 59 0 4 -9 2 -20 -5 -11 -7 -18 -19 -15 -26 3 -7 0 -10 -5 -7 -6 4 -24 0
-40 -9 -27 -13 -32 -13 -52 5 -16 14 -19 22 -10 25 29 13 7 21 -55 22 -38 0
-62 -2 -55 -4z m92 -78 c0 -11 -19 -15 -25 -6 -3 5 1 10 9 10 9 0 16 -2 16 -4z
m-45 -36 c-3 -5 -12 -10 -18 -10 -7 0 -6 4 3 10 19 12 23 12 15 0z m-135 -70
c0 -5 -8 -10 -17 -10 -15 0 -16 2 -3 10 19 12 20 12 20 0z"/>
<path d="M834 1457 c3 -10 6 -23 6 -28 0 -5 4 -9 9 -9 13 0 7 28 -9 43 -10 10
-12 9 -6 -6z"/>
<path d="M475 1450 c-16 -7 -17 -9 -3 -9 9 -1 20 4 23 9 7 11 7 11 -20 0z"/>
<path d="M578 1446 c-21 -15 -24 -59 -5 -74 26 -21 59 -18 79 9 16 22 18 30 9
48 -7 11 -17 21 -24 21 -7 0 -6 -4 3 -10 11 -7 6 -8 -15 -5 -42 5 -42 5 -20
15 13 6 15 9 5 9 -8 0 -23 -6 -32 -13z"/>
<path d="M790 1424 c6 -15 8 -29 5 -32 -3 -3 -5 -1 -5 4 0 6 -7 19 -15 30 -12
16 -12 10 2 -31 13 -40 18 -46 24 -30 4 12 8 14 8 6 1 -8 4 -12 7 -8 8 7 -14
75 -27 82 -5 4 -4 -6 1 -21z"/>
<path d="M818 1423 c5 -21 7 -23 10 -9 2 10 0 22 -6 28 -6 6 -7 0 -4 -19z"/>
<path d="M432 1428 c-7 -7 -12 -24 -12 -40 0 -20 8 -31 29 -43 20 -10 32 -12
36 -4 4 6 4 13 1 16 -3 4 -6 1 -6 -5 0 -9 -6 -9 -25 0 -27 12 -35 54 -13 76 7
7 10 12 7 12 -3 0 -10 -5 -17 -12z"/>
<path d="M744 1423 c3 -10 8 -30 12 -45 3 -16 10 -28 14 -28 5 0 2 20 -7 45
-14 42 -30 65 -19 28z"/>
<path d="M940 1401 c0 -5 7 -12 16 -15 14 -5 15 -4 4 9 -14 17 -20 19 -20 6z"/>
<path d="M2651 1383 c-21 -26 -37 -70 -29 -78 2 -3 16 20 31 50 30 61 29 68
-2 28z"/>
<path d="M3105 1340 c-3 -11 -2 -28 4 -37 8 -15 10 -11 11 20 0 41 -5 47 -15
17z"/>
<path d="M223 1285 c-6 -17 25 -47 42 -41 13 4 7 39 -8 48 -18 12 -27 9 -34
-7z m32 -15 c3 -5 2 -10 -4 -10 -5 0 -13 5 -16 10 -3 6 -2 10 4 10 5 0 13 -4
16 -10z"/>
<path d="M2847 1253 c-3 -5 1 -21 8 -38 l13 -30 -2 37 c-1 36 -9 48 -19 31z"/>
<path d="M2460 1227 c27 -15 36 -14 25 2 -3 6 -16 11 -28 11 -21 0 -21 -1 3
-13z"/>
<path d="M2700 1190 c0 -5 5 -10 10 -10 6 0 10 5 10 10 0 6 -4 10 -10 10 -5 0
-10 -4 -10 -10z"/>
<path d="M114 1165 c-12 -8 -27 -28 -33 -44 -24 -56 27 -121 95 -121 34 0 84
51 84 85 0 33 -24 81 -45 89 -29 11 -80 6 -101 -9z m88 -12 c8 -10 18 -26 21
-36 4 -10 11 -16 16 -13 5 3 7 -3 4 -15 -4 -16 -8 -17 -14 -7 -7 10 -9 9 -9
-4 0 -21 -47 -45 -77 -40 -26 4 -53 37 -53 65 0 26 45 67 73 67 13 0 31 -8 39
-17z"/>
<path d="M125 1140 c-3 -5 -1 -10 4 -10 6 0 11 5 11 10 0 6 -2 10 -4 10 -3 0
-8 -4 -11 -10z"/>
<path d="M177 1139 c7 -7 15 -10 18 -7 3 3 -2 9 -12 12 -14 6 -15 5 -6 -5z"/>
<path d="M146 1123 c-6 -14 -5 -15 5 -6 7 7 10 15 7 18 -3 3 -9 -2 -12 -12z"/>
<path d="M2965 1167 c-42 -25 -47 -51 -8 -36 26 10 43 26 43 42 0 10 -11 8
-35 -6z"/>
<path d="M2660 1141 c0 -5 -3 -16 -6 -25 -3 -9 -2 -16 4 -16 13 0 23 38 11 46
-5 3 -9 1 -9 -5z"/>
<path d="M468 1114 c-167 -86 -131 -335 55 -385 94 -25 203 31 242 123 21 52
20 71 -4 63 -11 -3 -22 -2 -25 3 -3 5 -20 9 -39 10 -32 1 -35 -2 -47 -41 -15
-51 -27 -67 -44 -61 -8 3 -16 -2 -19 -10 -4 -11 -19 -16 -47 -16 -25 0 -39 -4
-35 -10 10 -16 -38 -12 -63 6 -12 8 -19 20 -16 26 4 6 2 8 -3 5 -6 -4 -14 0
-17 9 -3 8 -2 12 4 9 16 -10 11 7 -5 19 -10 7 -18 34 -22 67 -5 48 -2 61 21
97 32 52 68 76 97 67 14 -5 19 -3 15 3 -3 6 1 18 10 26 23 24 -2 20 -58 -10z
m95 -364 c8 0 7 -4 -1 -12 -9 -9 -16 -8 -30 6 -16 18 -16 19 1 12 10 -3 24 -6
30 -6z"/>
<path d="M616 1125 c10 -8 26 -15 34 -15 27 -1 90 -63 92 -91 1 -15 10 -32 20
-38 18 -11 18 -10 3 26 -27 64 -105 133 -151 133 -16 0 -16 -1 2 -15z"/>
<path d="M3290 1068 c15 -24 18 -42 13 -68 -6 -32 -5 -34 10 -21 31 25 17 90
-23 111 -20 11 -20 11 0 -22z"/>
<path d="M262 1035 c-6 -13 -23 -31 -37 -41 -30 -20 -32 -31 -5 -39 33 -10 60
4 60 31 0 13 5 24 11 24 5 0 7 -4 4 -10 -9 -15 11 -12 24 3 8 10 7 18 -2 29
-22 27 -44 28 -55 3z"/>
<path d="M540 1041 c0 -5 -16 -12 -35 -15 -19 -4 -35 -11 -35 -17 0 -6 9 -5
23 2 20 11 21 11 8 -5 -22 -26 -25 -115 -5 -123 9 -3 20 0 24 7 4 7 16 9 28 6
13 -4 22 -1 26 9 3 9 11 13 16 10 16 -10 40 14 40 40 0 16 -8 25 -26 29 -16 4
-24 12 -21 20 3 8 -2 21 -12 30 -20 18 -31 20 -31 7z"/>
<path d="M2903 1004 c-9 -23 13 -40 32 -24 12 10 13 16 4 26 -15 18 -28 18
-36 -2z"/>
<path d="M3211 997 c-6 -8 -8 -17 -4 -20 7 -8 33 11 33 24 0 13 -16 11 -29 -4z"/>
<path d="M2875 970 c-3 -5 -1 -10 4 -10 6 0 11 5 11 10 0 6 -2 10 -4 10 -3 0
-8 -4 -11 -10z"/>
<path d="M736 962 c-2 -4 -1 -14 5 -22 7 -12 9 -10 9 8 0 23 -5 28 -14 14z"/>
<path d="M411 911 c-1 -24 2 -32 9 -25 7 7 7 19 1 35 -9 23 -10 22 -10 -10z"/>
<path d="M3040 924 c0 -8 5 -12 10 -9 6 4 8 11 5 16 -9 14 -15 11 -15 -7z"/>
<path d="M3074 915 c-6 -16 9 -34 29 -35 13 0 8 27 -8 40 -12 10 -16 9 -21 -5z"/>
<path d="M2960 881 c0 -12 4 -21 8 -21 16 0 5 -51 -17 -78 -12 -15 -19 -22
-16 -15 9 19 -12 25 -28 8 -18 -18 -28 -19 -24 -4 1 6 -4 14 -10 16 -9 3 -13
-7 -13 -31 0 -29 4 -36 20 -36 24 0 70 21 70 32 0 5 11 6 24 2 36 -9 49 3 31
28 -10 15 -11 25 -4 34 14 18 -3 78 -24 82 -12 2 -17 -3 -17 -17z"/>
<path d="M2917 864 c-4 -4 -7 -18 -7 -31 0 -20 5 -24 23 -21 16 2 22 10 22 28
0 24 -23 39 -38 24z"/>
<path d="M460 854 c0 -6 7 -19 16 -30 14 -18 14 -18 3 6 -14 31 -19 36 -19 24z"/>
<path d="M2835 850 c-3 -5 1 -10 10 -10 9 0 13 5 10 10 -3 6 -8 10 -10 10 -2
0 -7 -4 -10 -10z"/>
<path d="M247 762 c-10 -10 -17 -26 -17 -36 0 -9 -4 -15 -9 -12 -15 10 1 -38
17 -51 9 -7 25 -13 36 -12 13 0 16 3 7 6 -7 3 -23 15 -34 26 -19 19 -19 20 -1
12 59 -24 94 -13 94 31 0 33 -16 30 -29 -6 -10 -29 -34 -40 -46 -20 -3 6 -1
10 5 10 6 0 19 7 27 16 14 13 14 17 2 25 -12 7 -12 9 1 10 10 0 8 3 -5 9 -29
12 -30 12 -48 -8z"/>
<path d="M48 691 c-27 -32 -48 -67 -48 -78 0 -12 40 -51 116 -111 63 -51 119
-92 124 -92 9 0 110 118 109 128 0 6 -235 204 -248 209 -3 2 -27 -24 -53 -56z
m96 -40 c3 -4 -6 -6 -19 -3 -14 2 -25 6 -25 8 0 8 39 4 44 -5z m151 -79 c-3
-3 2 -14 12 -24 9 -10 11 -18 5 -18 -6 0 -13 4 -16 9 -3 5 -15 7 -25 4 -10 -3
-22 0 -25 5 -4 6 2 8 14 5 15 -4 19 -1 15 9 -4 9 0 15 10 15 8 0 13 -3 10 -5z
m-4 -81 c-10 -14 -28 -34 -39 -45 -21 -18 -22 -18 -65 20 -26 23 -42 44 -39
52 4 11 7 11 14 -2 5 -9 16 -16 24 -16 8 0 13 -4 10 -9 -7 -10 38 -6 56 5 7 5
16 9 20 9 12 0 21 15 9 15 -7 0 -9 5 -6 10 5 8 11 7 21 -1 12 -9 11 -15 -5
-38z m-44 26 c-5 -15 -29 -16 -34 -2 -2 6 6 11 18 12 12 1 19 -3 16 -10z"/>
<path d="M2952 728 c-6 -6 -12 -20 -12 -29 0 -9 -9 -19 -21 -22 -15 -4 -20
-12 -17 -29 4 -29 30 -30 43 0 5 12 18 25 27 28 21 6 23 23 5 47 -10 14 -15
15 -25 5z"/>
<path d="M2857 693 c-12 -11 -8 -23 8 -23 8 0 15 7 15 15 0 16 -12 20 -23 8z"/>
<path d="M525 600 c3 -5 -1 -10 -10 -10 -9 0 -13 -4 -10 -10 3 -5 1 -10 -6
-10 -7 0 -9 -3 -6 -6 4 -4 20 -1 37 6 24 10 28 15 19 26 -13 16 -33 19 -24 4z"/>
<path d="M3110 570 c0 -5 5 -10 10 -10 6 0 10 5 10 10 0 6 -4 10 -10 10 -5 0
-10 -4 -10 -10z"/>
<path d="M0 551 c0 -6 21 -25 46 -43 41 -29 77 -76 79 -103 1 -11 25 -8 38 5
15 13 -12 49 -51 69 -20 11 -50 33 -66 50 -30 31 -46 39 -46 22z"/>
<path d="M534 528 c-4 -7 -3 -8 4 -4 20 12 35 -4 20 -21 -15 -18 -20 -45 -7
-37 5 3 7 9 4 14 -3 5 5 16 17 25 20 13 21 17 8 25 -20 13 -37 12 -46 -2z"/>
<path d="M0 503 c0 -5 28 -35 62 -68 34 -33 53 -49 43 -36 -18 22 -18 24 -2
18 29 -11 20 0 -43 48 -33 25 -60 42 -60 38z m75 -63 c10 -11 16 -20 13 -20
-3 0 -13 9 -23 20 -10 11 -16 20 -13 20 3 0 13 -9 23 -20z"/>
<path d="M333 465 c0 -8 4 -12 9 -9 5 3 6 10 3 15 -9 13 -12 11 -12 -6z"/>
<path d="M3050 450 c0 -13 -7 -20 -19 -20 -11 0 -21 -9 -24 -21 -3 -12 -10
-18 -16 -14 -7 3 -11 -2 -11 -14 0 -38 76 -36 102 3 12 17 9 61 -4 74 -18 18
-28 15 -28 -8z"/>
<path d="M0 444 c1 -9 93 -84 104 -84 3 0 -11 15 -31 33 -57 49 -73 60 -73 51z"/>
<path d="M700 391 c0 -5 5 -13 10 -16 6 -3 10 -2 10 4 0 5 -4 13 -10 16 -5 3
-10 2 -10 -4z"/>
<path d="M3130 340 c0 -6 -9 -29 -20 -53 -12 -24 -19 -56 -16 -74 4 -38 31
-83 49 -83 12 0 37 44 37 66 0 14 50 57 58 49 3 -2 0 -11 -6 -18 -7 -8 -9 -17
-5 -20 9 -9 51 -9 56 1 9 16 -14 72 -29 72 -9 0 -29 -15 -45 -32 -17 -19 -29
-27 -29 -19 0 8 10 26 23 40 l22 26 -24 -20 -24 -20 6 23 c8 33 -1 51 -23 47
-13 -3 -17 1 -13 11 3 8 0 14 -6 14 -6 0 -11 -5 -11 -10z m-10 -94 c0 -3 -4
-8 -10 -11 -5 -3 -10 -1 -10 4 0 6 5 11 10 11 6 0 10 -2 10 -4z"/>
<path d="M290 298 c-88 -45 -119 -163 -64 -244 15 -21 32 -42 38 -46 6 -4 56
-8 111 -8 l100 0 27 33 c69 87 47 211 -48 264 -50 29 -108 29 -164 1z m147
-43 c36 -24 57 -65 58 -112 1 -24 7 -49 13 -55 19 -19 14 -28 -9 -19 -16 5
-28 2 -46 -15 -70 -65 -189 -12 -200 88 -10 103 98 169 184 113z"/>
<path d="M576 307 c3 -10 9 -15 12 -12 3 3 0 11 -7 18 -10 9 -11 8 -5 -6z"/>
<path d="M777 289 c7 -7 15 -10 18 -7 3 3 -2 9 -12 12 -14 6 -15 5 -6 -5z"/>
<path d="M664 176 c-57 -48 -28 -130 49 -143 31 -5 40 -1 67 25 16 17 30 40
30 51 0 78 -87 118 -146 67z m69 -50 c6 -15 -1 -26 -15 -26 -4 0 -8 9 -8 20 0
23 15 27 23 6z"/>
<path d="M3040 116 c0 -2 11 -6 25 -8 13 -3 22 -1 19 3 -5 9 -44 13 -44 5z"/>
<path d="M2967 97 c-15 -6 -26 -16 -24 -21 2 -6 28 -25 58 -43 61 -36 120 -43
157 -17 23 16 23 16 4 30 -13 9 -18 21 -15 33 6 24 -24 32 -52 14 -17 -10 -26
-10 -49 2 -32 17 -40 17 -79 2z m90 -33 c-3 -3 -12 -4 -19 -1 -8 3 -5 6 6 6
11 1 17 -2 13 -5z"/>
</g>
</svg>
